<svg width="272" height="310" viewBox="0 0 272 310" fill="none" xmlns="http://www.w3.org/2000/svg">
<rect width="271.333" height="310" fill="black"/>
<g clip-path="url(#clip0_26_8826)">
<path d="M222.369 171.011C221.645 171.011 220.997 171.143 220.415 171.396C219.833 171.648 219.339 172.011 218.933 172.472C218.516 172.922 218.208 173.471 217.989 174.108C217.769 174.733 217.66 175.425 217.66 176.171C217.66 176.918 217.77 177.599 218 178.224C218.231 178.85 218.571 179.388 219.021 179.849C219.471 180.299 220.031 180.651 220.69 180.903C221.348 181.156 222.095 181.287 222.94 181.287C224.071 181.287 225.059 181.145 225.916 180.838L225.63 179.256C225.257 179.399 224.851 179.498 224.411 179.564C223.972 179.63 223.544 179.674 223.127 179.674C222.172 179.674 221.392 179.421 220.777 178.916C220.174 178.411 219.833 177.698 219.745 176.765L226.641 176.764V175.853C226.641 175.117 226.551 174.459 226.377 173.855C226.19 173.251 225.927 172.746 225.564 172.329C225.202 171.912 224.752 171.582 224.225 171.352C223.698 171.132 223.083 171.011 222.369 171.011ZM222.369 172.537C223.083 172.537 223.643 172.779 224.06 173.262C224.479 173.734 224.664 174.371 224.664 175.162V175.205H219.745C219.844 174.404 220.108 173.767 220.558 173.273C221.019 172.79 221.623 172.537 222.369 172.537Z" fill="#E6E6E6"/>
<path d="M178.136 171.011C177.62 171.011 177.061 171.077 176.457 171.198C175.842 171.319 175.37 171.451 175.03 171.594L175.469 173.174C175.886 172.999 176.325 172.867 176.775 172.768C177.236 172.68 177.632 172.636 177.983 172.636C178.773 172.636 179.344 172.812 179.718 173.152C180.092 173.504 180.277 174.009 180.277 174.667L180.278 174.887C179.444 174.887 178.642 174.931 177.896 175.019C177.149 175.107 176.479 175.271 175.908 175.513C175.327 175.754 174.865 176.095 174.536 176.545C174.197 176.984 174.031 177.566 174.031 178.269C174.031 178.817 174.131 179.289 174.328 179.674C174.525 180.058 174.789 180.365 175.107 180.607C175.436 180.848 175.799 181.024 176.205 181.134C176.611 181.233 177.017 181.287 177.445 181.287C178.17 181.287 178.785 181.145 179.29 180.849C179.806 180.563 180.179 180.19 180.432 179.729H180.477C180.499 179.948 180.53 180.19 180.564 180.431C180.609 180.684 180.642 180.892 180.696 181.068H182.584C182.517 180.75 182.48 180.376 182.452 179.97C182.435 179.553 182.407 179.18 182.407 178.828V174.667C182.407 173.46 182.045 172.549 181.331 171.934C180.607 171.319 179.542 171.011 178.136 171.011ZM179.871 176.303H180.278V177.061C180.278 177.412 180.233 177.741 180.135 178.06C180.036 178.378 179.882 178.664 179.674 178.905C179.465 179.158 179.202 179.355 178.872 179.498C178.543 179.652 178.159 179.728 177.719 179.728C177.181 179.728 176.765 179.586 176.49 179.3C176.215 179.026 176.083 178.653 176.083 178.181C176.083 177.796 176.183 177.478 176.391 177.236C176.6 176.995 176.874 176.808 177.225 176.665C177.565 176.523 177.972 176.424 178.433 176.369C178.894 176.326 179.377 176.303 179.871 176.303Z" fill="#E6E6E6"/>
<path d="M154.358 171.011C153.633 171.011 152.985 171.143 152.403 171.396C151.833 171.648 151.339 172.011 150.921 172.472C150.515 172.922 150.196 173.471 149.977 174.108C149.757 174.733 149.648 175.425 149.648 176.171C149.648 176.918 149.768 177.599 149.999 178.224C150.23 178.85 150.57 179.388 151.02 179.849C151.46 180.299 152.019 180.651 152.678 180.903C153.337 181.156 154.094 181.287 154.94 181.287C156.059 181.287 157.048 181.145 157.904 180.837L157.628 179.256C157.255 179.399 156.849 179.498 156.41 179.564C155.959 179.63 155.531 179.674 155.125 179.674C154.17 179.674 153.38 179.421 152.776 178.916C152.161 178.411 151.82 177.698 151.744 176.765L158.64 176.764V175.853C158.64 175.117 158.539 174.459 158.365 173.855C158.178 173.251 157.915 172.746 157.553 172.329C157.19 171.912 156.751 171.582 156.213 171.352C155.686 171.132 155.071 171.011 154.358 171.011ZM154.356 172.537C155.07 172.537 155.63 172.779 156.047 173.262C156.465 173.734 156.651 174.371 156.651 175.162V175.205H151.743C151.831 174.404 152.095 173.767 152.556 173.273C153.006 172.79 153.61 172.537 154.356 172.537Z" fill="#E6E6E6"/>
<path d="M206.791 151.404C206.066 151.404 205.418 151.536 204.837 151.788C204.255 152.041 203.761 152.403 203.354 152.864C202.937 153.314 202.629 153.863 202.41 154.5C202.19 155.125 202.081 155.817 202.081 156.563C202.081 157.31 202.191 157.991 202.421 158.617C202.652 159.242 202.992 159.78 203.442 160.241C203.892 160.692 204.452 161.043 205.111 161.296C205.77 161.559 206.516 161.68 207.362 161.68C208.492 161.68 209.48 161.537 210.337 161.229L210.051 159.649C209.678 159.791 209.283 159.89 208.833 159.956C208.394 160.022 207.965 160.066 207.548 160.066C206.593 160.066 205.814 159.813 205.199 159.308C204.595 158.803 204.254 158.09 204.167 157.157L211.062 157.156V156.245C211.062 155.51 210.972 154.851 210.798 154.247C210.611 153.643 210.348 153.138 209.985 152.721C209.623 152.304 209.173 151.974 208.646 151.744C208.119 151.524 207.504 151.404 206.791 151.404ZM206.791 152.93C207.504 152.93 208.064 153.171 208.481 153.654C208.9 154.126 209.085 154.763 209.085 155.554V155.598H204.167C204.266 154.796 204.529 154.159 204.99 153.665C205.44 153.183 206.044 152.93 206.791 152.93Z" fill="#E6E6E6"/>
<path d="M165.401 151.404C164.885 151.404 164.325 151.469 163.711 151.59C163.107 151.711 162.634 151.843 162.294 151.986L162.723 153.566C163.151 153.391 163.59 153.259 164.04 153.16C164.501 153.072 164.896 153.028 165.248 153.028C166.027 153.028 166.609 153.204 166.982 153.544C167.356 153.896 167.542 154.401 167.542 155.059L167.543 155.279C166.698 155.279 165.908 155.323 165.161 155.411C164.403 155.499 163.745 155.663 163.163 155.905C162.592 156.146 162.131 156.487 161.79 156.937C161.451 157.376 161.285 157.958 161.285 158.661C161.285 159.21 161.385 159.681 161.582 160.066C161.79 160.45 162.043 160.757 162.372 160.999C162.691 161.24 163.064 161.416 163.459 161.526C163.865 161.625 164.282 161.68 164.71 161.68C165.424 161.68 166.039 161.537 166.555 161.241C167.071 160.955 167.444 160.582 167.697 160.121H167.73C167.764 160.34 167.784 160.582 167.829 160.824C167.863 161.076 167.905 161.284 167.95 161.46H169.849C169.781 161.131 169.739 160.769 169.705 160.362C169.672 159.945 169.672 159.572 169.672 159.221V155.06C169.672 153.852 169.309 152.941 168.596 152.326C167.871 151.711 166.807 151.404 165.401 151.404ZM167.136 156.695H167.543V157.453C167.543 157.804 167.498 158.133 167.4 158.452C167.301 158.77 167.146 159.056 166.938 159.297C166.73 159.55 166.466 159.747 166.137 159.89C165.807 160.043 165.423 160.121 164.984 160.121C164.435 160.121 164.03 159.978 163.755 159.693C163.481 159.418 163.337 159.045 163.337 158.573C163.337 158.188 163.447 157.87 163.655 157.629C163.853 157.398 164.139 157.2 164.479 157.058C164.83 156.915 165.237 156.816 165.698 156.761C166.159 156.718 166.631 156.695 167.136 156.695Z" fill="#E6E6E6"/>
<path d="M149.186 151.404C148.461 151.404 147.813 151.536 147.232 151.788C146.65 152.041 146.156 152.403 145.749 152.864C145.332 153.314 145.025 153.863 144.805 154.5C144.586 155.125 144.476 155.817 144.476 156.563C144.476 157.31 144.586 157.991 144.817 158.617C145.047 159.242 145.387 159.78 145.838 160.241C146.287 160.692 146.848 161.043 147.506 161.296C148.165 161.559 148.911 161.68 149.757 161.68C150.888 161.68 151.875 161.537 152.732 161.229L152.446 159.649C152.073 159.791 151.667 159.89 151.228 159.956C150.789 160.022 150.361 160.066 149.943 160.066C148.988 160.066 148.209 159.813 147.594 159.308C146.99 158.803 146.638 158.09 146.562 157.157L153.457 157.156V156.245C153.457 155.51 153.367 154.851 153.193 154.247C153.006 153.643 152.743 153.138 152.38 152.721C152.018 152.304 151.568 151.974 151.041 151.744C150.514 151.524 149.899 151.404 149.186 151.404ZM149.186 152.93C149.899 152.93 150.459 153.171 150.877 153.654C151.295 154.126 151.48 154.763 151.48 155.554V155.598H146.562C146.661 154.796 146.924 154.159 147.375 153.665C147.835 153.183 148.439 152.93 149.186 152.93Z" fill="#E6E6E6"/>
<path d="M136.503 131.796C135.756 131.796 135.098 131.917 134.505 132.158C133.912 132.389 133.407 132.718 133.001 133.157C132.572 133.596 132.254 134.134 132.034 134.771C131.815 135.408 131.694 136.121 131.694 136.923C131.694 137.724 131.815 138.449 132.034 139.075C132.254 139.712 132.572 140.25 133.001 140.7C133.407 141.139 133.912 141.49 134.505 141.721C135.098 141.951 135.756 142.072 136.503 142.072C137.238 142.072 137.897 141.951 138.49 141.721C139.083 141.49 139.577 141.139 140.005 140.7C140.411 140.25 140.741 139.712 140.96 139.075C141.191 138.449 141.3 137.724 141.3 136.923C141.3 136.121 141.191 135.408 140.96 134.771C140.741 134.134 140.411 133.586 140.005 133.146C139.577 132.707 139.083 132.378 138.49 132.147C137.897 131.917 137.238 131.796 136.503 131.796ZM136.504 133.421C136.965 133.421 137.361 133.508 137.701 133.673C138.03 133.849 138.305 134.091 138.524 134.398C138.743 134.716 138.909 135.09 139.007 135.518C139.12 135.935 139.173 136.407 139.173 136.923H139.171C139.171 137.988 138.951 138.833 138.512 139.481C138.073 140.118 137.403 140.447 136.503 140.458C135.602 140.447 134.933 140.118 134.493 139.47C134.043 138.822 133.824 137.977 133.824 136.923C133.824 136.407 133.88 135.946 133.99 135.518C134.089 135.101 134.254 134.727 134.473 134.409C134.692 134.102 134.967 133.849 135.307 133.673C135.637 133.508 136.043 133.421 136.504 133.421Z" fill="#E6E6E6"/>
<path d="M105.625 154.812L65.8124 115L26 154.812L65.8124 194.625L105.625 154.812Z" fill="url(#paint0_linear_26_8826)"/>
<path d="M68.0022 157.002V124.754L51.8782 140.878L68.0022 157.002Z" fill="url(#paint1_linear_26_8826)"/>
<path d="M63.6228 152.623V184.871L79.7468 168.747L63.6228 152.623Z" fill="url(#paint2_linear_26_8826)"/>
<path d="M230.68 171.242V172.614H230.714C230.989 172.109 231.406 171.714 231.944 171.429C232.493 171.154 233.096 171.011 233.766 171.011C234.853 171.011 235.731 171.341 236.379 171.978C237.027 172.625 237.345 173.493 237.345 174.59V181.068H235.215V175.392C235.215 174.964 235.182 174.58 235.128 174.228C235.063 173.888 234.954 173.591 234.788 173.361C234.622 173.119 234.415 172.944 234.151 172.823C233.898 172.691 233.558 172.636 233.152 172.636C232.845 172.636 232.559 172.691 232.263 172.801C231.987 172.911 231.725 173.086 231.505 173.317C231.275 173.558 231.088 173.866 230.956 174.239C230.813 174.623 230.737 175.085 230.737 175.633V181.068H228.607V171.242L230.68 171.242Z" fill="#E6E6E6"/>
<path d="M203.234 171.242V172.647H203.279C203.532 172.131 203.915 171.725 204.453 171.44C204.991 171.154 205.562 171.012 206.177 171.012C207.637 171.012 208.603 171.55 209.086 172.614H209.14C209.491 172.044 209.941 171.637 210.479 171.374C211.017 171.121 211.599 171.001 212.225 171.012C212.818 171.012 213.345 171.099 213.795 171.275C214.245 171.451 214.618 171.692 214.904 172.011C215.2 172.329 215.42 172.702 215.562 173.141C215.706 173.569 215.77 174.053 215.77 174.59V181.068H213.641V175.392C213.641 174.898 213.612 174.492 213.576 174.195C213.522 173.899 213.421 173.624 213.28 173.383C213.136 173.13 212.939 172.944 212.676 172.823C212.434 172.691 212.105 172.636 211.721 172.636C211.456 172.636 211.194 172.68 210.93 172.779C210.677 172.867 210.447 173.01 210.238 173.196C210.053 173.394 209.887 173.646 209.755 173.965C209.635 174.283 209.57 174.645 209.57 175.074V181.068H207.44V175.282C207.44 174.865 207.412 174.492 207.375 174.173C207.319 173.844 207.232 173.559 207.09 173.328C206.946 173.098 206.76 172.933 206.497 172.812C206.244 172.691 205.926 172.636 205.542 172.636C205.256 172.636 204.971 172.691 204.696 172.801C204.421 172.911 204.191 173.075 203.994 173.295C203.786 173.515 203.631 173.8 203.5 174.173C203.367 174.536 203.303 174.986 203.303 175.513V181.068H201.173V171.242L203.234 171.242Z" fill="#E6E6E6"/>
<path d="M192.112 171.242V172.614H192.146C192.421 172.109 192.827 171.714 193.376 171.429C193.925 171.154 194.528 171.011 195.187 171.011C196.285 171.011 197.163 171.341 197.8 171.978C198.459 172.625 198.777 173.493 198.777 174.59V181.068H196.647V175.392C196.647 174.964 196.614 174.58 196.56 174.228C196.493 173.888 196.386 173.591 196.22 173.361C196.054 173.119 195.846 172.944 195.583 172.823C195.319 172.691 194.979 172.636 194.573 172.636C194.277 172.636 193.98 172.691 193.695 172.801C193.409 172.911 193.157 173.086 192.937 173.317C192.707 173.558 192.52 173.866 192.377 174.239C192.234 174.623 192.169 175.085 192.169 175.633V181.068H190.039V171.242L192.112 171.242Z" fill="#E6E6E6"/>
<path d="M187.217 169.452H185.032V167.476H187.217V169.452Z" fill="#E6E6E6"/>
<path d="M187.172 181.068H185.042V171.231H187.172V181.068Z" fill="#E6E6E6"/>
<path d="M166.817 171.242H168.453V168.684H170.594V171.242H172.757V172.856H170.594V177.994C170.594 178.323 170.594 178.598 170.628 178.806C170.656 179.004 170.704 179.169 170.794 179.278C170.881 179.388 171.002 179.465 171.145 179.498C171.3 179.542 171.507 179.564 171.771 179.564C171.956 179.564 172.122 179.553 172.276 179.541C172.442 179.53 172.594 179.508 172.737 179.486V181.067C172.529 181.09 172.276 181.111 171.99 181.133C171.705 181.166 171.419 181.177 171.134 181.177C170.563 181.177 170.102 181.111 169.751 180.99C169.399 180.869 169.125 180.683 168.938 180.441C168.753 180.2 168.62 179.903 168.554 179.563C168.498 179.223 168.456 178.828 168.456 178.388V172.855H166.82L166.817 171.242Z" fill="#E6E6E6"/>
<path d="M165.895 172.702C165.687 172.658 165.423 172.636 165.094 172.636C164.808 172.625 164.512 172.669 164.204 172.79C163.886 172.911 163.623 173.098 163.414 173.339C163.206 173.592 163.03 173.921 162.909 174.349C162.788 174.766 162.724 175.26 162.724 175.82V181.068H160.594V171.242H162.669V172.538H162.703C163.152 171.517 164.02 171.012 165.282 171.012C165.381 171.012 165.49 171.012 165.623 171.023C165.744 171.034 165.864 171.034 165.996 171.056L165.895 172.702Z" fill="#E6E6E6"/>
<path d="M142.423 171.242H144.07V168.684H146.2V171.242H148.362V172.856H146.2V177.994C146.2 178.323 146.2 178.598 146.233 178.806C146.262 179.004 146.309 179.169 146.399 179.278C146.486 179.388 146.607 179.465 146.762 179.498C146.905 179.542 147.113 179.564 147.377 179.564C147.562 179.564 147.728 179.553 147.881 179.541C148.047 179.53 148.2 179.508 148.343 179.486V181.067C148.135 181.09 147.881 181.111 147.596 181.133C147.311 181.166 147.025 181.177 146.74 181.177C146.169 181.177 145.708 181.111 145.356 180.99C145.005 180.869 144.73 180.683 144.544 180.441C144.347 180.2 144.226 179.903 144.16 179.563C144.106 179.223 144.073 178.828 144.073 178.388V172.855H142.426L142.423 171.242Z" fill="#E6E6E6"/>
<path d="M134.145 171.242V172.614H134.179C134.454 172.109 134.87 171.714 135.419 171.429C135.968 171.154 136.572 171.011 137.231 171.011C138.329 171.011 139.196 171.341 139.844 171.978C140.491 172.625 140.821 173.493 140.821 174.59V181.068H138.691V175.392C138.691 174.964 138.657 174.58 138.593 174.228C138.525 173.888 138.418 173.591 138.252 173.361C138.098 173.119 137.879 172.944 137.626 172.823C137.362 172.691 137.023 172.636 136.616 172.636C136.309 172.636 136.023 172.691 135.738 172.801C135.453 172.911 135.189 173.086 134.97 173.317C134.739 173.558 134.563 173.866 134.421 174.239C134.277 174.623 134.201 175.085 134.201 175.633V181.068H132.071V171.242L134.145 171.242Z" fill="#E6E6E6"/>
<path d="M121.926 167.773H129.611V169.54H124.11V173.361H129.183V175.151H124.11V179.3H129.775V181.068H121.926V167.773Z" fill="#E6E6E6"/>
<path d="M196.592 159.583H196.625L199.238 151.634H201.5L197.811 161.46H195.319L191.663 151.634H193.98L196.592 159.583Z" fill="#E6E6E6"/>
<path d="M190.17 149.845H187.986V147.868H190.17V149.845Z" fill="#E6E6E6"/>
<path d="M190.125 161.46H187.995V151.634H190.125V161.46Z" fill="#E6E6E6"/>
<path d="M180.091 151.623H181.737V149.076H183.867V151.623H186.03V153.248H183.867V158.386C183.867 158.715 183.867 158.99 183.912 159.199C183.94 159.396 183.988 159.561 184.078 159.671C184.165 159.78 184.275 159.857 184.429 159.89C184.584 159.934 184.792 159.956 185.055 159.956C185.229 159.956 185.406 159.945 185.56 159.933C185.714 159.922 185.868 159.901 186.021 159.879V161.46C185.802 161.482 185.56 161.503 185.275 161.525C184.989 161.558 184.704 161.569 184.407 161.569C183.836 161.569 183.375 161.503 183.035 161.383C182.684 161.262 182.409 161.075 182.223 160.834C182.026 160.592 181.904 160.296 181.838 159.955C181.771 159.615 181.74 159.22 181.74 158.781V153.247H180.093L180.091 151.623Z" fill="#E6E6E6"/>
<path d="M178.587 153.38C178.311 153.259 178.016 153.171 177.708 153.105C177.39 153.05 177.105 153.028 176.83 153.028C176.314 153.028 175.864 153.116 175.48 153.303C175.084 153.49 174.755 153.742 174.492 154.061C174.228 154.379 174.03 154.752 173.899 155.18C173.756 155.62 173.691 156.081 173.691 156.564C173.691 157.047 173.758 157.497 173.899 157.925C174.031 158.342 174.228 158.716 174.492 159.034C174.756 159.363 175.095 159.616 175.502 159.791C175.919 159.978 176.369 160.066 176.863 160.066C177.17 160.066 177.478 160.033 177.763 159.989C178.049 159.934 178.345 159.846 178.642 159.704L178.993 161.306C178.62 161.449 178.246 161.537 177.873 161.603C177.5 161.658 177.116 161.68 176.731 161.68C175.886 161.68 175.14 161.548 174.481 161.284C173.833 161.032 173.284 160.67 172.856 160.208C172.428 159.747 172.098 159.209 171.89 158.595C171.67 157.969 171.56 157.299 171.56 156.564C171.56 155.806 171.681 155.114 171.912 154.489C172.153 153.863 172.494 153.325 172.933 152.864C173.372 152.414 173.921 152.062 174.546 151.799C175.183 151.536 175.908 151.404 176.72 151.404C177.599 151.404 178.356 151.524 178.993 151.755L178.587 153.38Z" fill="#E6E6E6"/>
<path d="M160.724 153.105C160.516 153.051 160.241 153.029 159.923 153.029C159.637 153.018 159.341 153.062 159.034 153.182C158.715 153.303 158.452 153.49 158.243 153.731C158.035 153.984 157.859 154.313 157.738 154.741C157.617 155.159 157.553 155.653 157.553 156.213V161.46H155.423V151.634H157.498V152.93H157.532C157.982 151.909 158.838 151.404 160.112 151.404C160.21 151.404 160.32 151.404 160.452 151.415C160.573 151.426 160.694 151.426 160.825 151.448L160.724 153.105Z" fill="#E6E6E6"/>
<path d="M137.241 151.623H138.888V149.076H141.018V151.623H143.181V153.248H141.018V158.386C141.018 158.715 141.018 158.99 141.063 159.199C141.091 159.396 141.139 159.561 141.229 159.671C141.316 159.78 141.437 159.857 141.58 159.89C141.735 159.934 141.942 159.956 142.206 159.956C142.38 159.956 142.557 159.945 142.711 159.933C142.865 159.922 143.018 159.901 143.172 159.879V161.46C142.964 161.482 142.711 161.503 142.425 161.525C142.14 161.558 141.854 161.569 141.558 161.569C140.987 161.569 140.526 161.503 140.186 161.383C139.834 161.262 139.56 161.075 139.373 160.834C139.176 160.592 139.055 160.296 138.989 159.955C138.924 159.615 138.891 159.22 138.891 158.781V153.247H137.244L137.241 151.623Z" fill="#E6E6E6"/>
<path d="M128.974 151.623V153.007H129.008C129.283 152.501 129.699 152.106 130.237 151.821C130.786 151.546 131.39 151.404 132.06 151.404C133.147 151.404 134.025 151.733 134.673 152.37C135.321 153.017 135.639 153.885 135.639 154.983V161.46H133.509V155.784C133.509 155.356 133.475 154.972 133.422 154.62C133.357 154.28 133.248 153.984 133.082 153.753C132.916 153.512 132.709 153.336 132.445 153.215C132.192 153.083 131.852 153.028 131.435 153.028C131.139 153.028 130.853 153.083 130.557 153.193C130.271 153.303 130.019 153.479 129.799 153.709C129.569 153.951 129.382 154.258 129.25 154.631C129.107 155.016 129.031 155.477 129.031 156.026V161.46H126.901V151.623L128.974 151.623Z" fill="#E6E6E6"/>
<path d="M121.926 148.165H124.11V161.46H121.926V148.165Z" fill="#E6E6E6"/>
<path d="M158.298 139.261H158.343L160.967 132.015H163.207L157.849 145.475H155.609L157.201 141.644L153.326 132.015H155.654L158.298 139.261Z" fill="#E6E6E6"/>
<path d="M145.376 132.026V133.399H145.41C145.685 132.894 146.102 132.498 146.64 132.213C147.189 131.938 147.793 131.796 148.462 131.796C149.549 131.796 150.427 132.125 151.064 132.762C151.723 133.41 152.041 134.277 152.041 135.375V141.852H149.911V136.176C149.911 135.748 149.878 135.364 149.824 135.013C149.759 134.672 149.65 134.376 149.484 134.145C149.318 133.904 149.111 133.728 148.847 133.607C148.583 133.475 148.254 133.421 147.837 133.421C147.541 133.421 147.244 133.475 146.959 133.585C146.674 133.695 146.421 133.871 146.19 134.101C145.971 134.343 145.784 134.65 145.642 135.024C145.498 135.408 145.434 135.869 145.434 136.418V141.852H143.304V132.026L145.376 132.026Z" fill="#E6E6E6"/>
<path d="M128.82 130.621C128.348 130.456 127.865 130.325 127.371 130.237C126.888 130.149 126.405 130.105 125.933 130.105C125.626 130.105 125.329 130.138 125.033 130.193C124.736 130.259 124.473 130.357 124.253 130.489C124.034 130.621 123.858 130.797 123.726 131.027C123.583 131.258 123.518 131.521 123.518 131.84C123.518 132.092 123.563 132.323 123.662 132.52C123.749 132.718 123.903 132.915 124.112 133.091C124.331 133.278 124.606 133.442 124.935 133.618C125.275 133.794 125.682 133.98 126.176 134.178C126.746 134.398 127.262 134.639 127.735 134.903C128.196 135.155 128.602 135.441 128.931 135.759C129.26 136.077 129.502 136.429 129.678 136.846C129.844 137.252 129.931 137.735 129.931 138.273C129.931 138.921 129.799 139.492 129.547 139.975C129.282 140.458 128.932 140.853 128.493 141.16C128.042 141.468 127.527 141.698 126.967 141.852C126.396 141.995 125.814 142.072 125.221 142.072C124.617 142.072 123.969 142.017 123.256 141.896C122.553 141.775 121.872 141.588 121.225 141.325L121.675 139.524C122.279 139.799 122.893 139.997 123.508 140.117C124.123 140.238 124.683 140.304 125.177 140.304C125.979 140.304 126.604 140.15 127.065 139.832C127.527 139.514 127.757 139.041 127.757 138.427C127.757 138.141 127.704 137.878 127.572 137.647C127.451 137.428 127.264 137.208 127.023 137.021C126.781 136.824 126.474 136.637 126.111 136.461C125.738 136.275 125.321 136.099 124.849 135.913C124.289 135.693 123.795 135.451 123.367 135.199C122.927 134.947 122.565 134.661 122.269 134.354C121.972 134.035 121.742 133.695 121.577 133.311C121.411 132.926 121.336 132.498 121.336 132.026C121.336 131.4 121.468 130.851 121.731 130.379C121.984 129.907 122.335 129.523 122.763 129.216C123.191 128.919 123.674 128.689 124.201 128.546C124.728 128.403 125.277 128.337 125.859 128.337C126.474 128.337 127.078 128.381 127.659 128.469C128.241 128.557 128.768 128.678 129.251 128.853L128.82 130.621Z" fill="#E6E6E6"/>
<path d="M238.948 171.242H240.594V168.684H242.724V171.242H244.898V172.856H242.724V177.994C242.724 178.324 242.752 178.598 242.769 178.807C242.797 179.004 242.845 179.169 242.935 179.279C243.022 179.389 243.143 179.465 243.286 179.498C243.441 179.542 243.648 179.564 243.912 179.564C244.086 179.564 244.263 179.553 244.417 179.541C244.571 179.53 244.724 179.509 244.878 179.487V181.068C244.67 181.09 244.417 181.111 244.131 181.133C243.846 181.166 243.56 181.177 243.275 181.177C242.693 181.177 242.232 181.111 241.892 180.991C241.541 180.87 241.266 180.683 241.079 180.442C240.883 180.2 240.761 179.904 240.695 179.563C240.631 179.223 240.597 178.828 240.597 178.389V172.855H238.95L238.948 171.242Z" fill="#E6E6E6"/>
</g>
<defs>
<linearGradient id="paint0_linear_26_8826" x1="26" y1="154.812" x2="105.624" y2="154.812" gradientUnits="userSpaceOnUse">
<stop stop-color="#7A7A7A"/>
<stop offset="0.02" stop-color="#7A7A7A"/>
<stop offset="0.0751178" stop-color="#7D7D7D"/>
<stop offset="0.1651" stop-color="#888888"/>
<stop offset="0.2786" stop-color="#9E9E9E"/>
<stop offset="0.41" stop-color="#C2C2C2"/>
<stop offset="0.5" stop-color="#C4C4C4"/>
<stop offset="0.59" stop-color="#C2C2C2"/>
<stop offset="0.7214" stop-color="#9E9E9E"/>
<stop offset="0.8349" stop-color="#888888"/>
<stop offset="0.9249" stop-color="#7D7D7D"/>
<stop offset="0.98" stop-color="#7A7A7A"/>
<stop offset="1" stop-color="#7A7A7A"/>
</linearGradient>
<linearGradient id="paint1_linear_26_8826" x1="73.4821" y1="140.886" x2="52.2215" y2="140.886" gradientUnits="userSpaceOnUse">
<stop offset="0.2" stop-color="#D1D1D1"/>
<stop offset="0.2824" stop-color="#CFCFCF"/>
<stop offset="0.4488" stop-color="#B0B0B0"/>
<stop offset="0.6813" stop-color="#868686"/>
<stop offset="0.9" stop-color="#717171"/>
</linearGradient>
<linearGradient id="paint2_linear_26_8826" x1="58.1142" y1="168.746" x2="79.3752" y2="168.746" gradientUnits="userSpaceOnUse">
<stop offset="0.2" stop-color="#D2D2D2"/>
<stop offset="0.2824" stop-color="#CFCFCF"/>
<stop offset="0.4488" stop-color="#AFAFAF"/>
<stop offset="0.6813" stop-color="#848484"/>
<stop offset="0.9" stop-color="#717171"/>
</linearGradient>
<clipPath id="clip0_26_8826">
<rect width="218.898" height="79.6247" fill="white" transform="translate(26 115)"/>
</clipPath>
</defs>
</svg>
