<svg width="272" height="310" viewBox="0 0 272 310" fill="none" xmlns="http://www.w3.org/2000/svg">
<rect width="271.333" height="310" fill="black"/>
<g clip-path="url(#clip0_26_8828)">
<path d="M189.93 79H81.6116C65.2981 79 52 91.7686 52 107.366V202.557C52 218.384 64.8343 230.847 81.3023 230.847H189.698C206.166 230.847 219 218.384 219 202.557V107.366C219 91.4628 206.243 79 189.93 79ZM215.675 202.557C215.675 216.626 204.233 227.559 189.62 227.559H81.3023C66.6898 227.636 55.3245 216.626 55.3245 202.557V107.366C55.3245 93.2978 66.8444 82.2113 81.6116 82.2113H190.007C204.465 82.2113 215.753 93.2213 215.753 107.366V202.557H215.675Z" fill="white"/>
<path d="M195.419 169.374H174.467L171.142 148.73L158.927 169.221H156.607C155.215 166.851 154.674 163.41 154.674 161.27C154.674 157.753 154.906 154.312 154.906 149.801C154.906 143.837 153.128 140.702 148.412 139.555V139.402C158.385 138.026 162.947 131.451 162.947 122.276C162.947 109.201 154.133 106.372 142.613 106.372H111.61L98.4663 167.845H114.934L119.728 145.443H130.707C136.583 145.443 138.979 148.272 138.979 153.7C138.979 157.829 138.515 161.117 138.515 164.252C138.515 165.398 138.747 168.151 139.598 169.221L151.504 181.684L141.221 203.475L163.179 190.553L179.57 203.016L176.554 182.449L195.419 169.374ZM135.655 133.974H122.511L125.681 119.141H137.897C142.226 119.141 146.788 120.288 146.788 125.487C146.788 132.139 141.608 133.974 135.655 133.974ZM163.488 186.96L148.18 195.982L155.215 181.149L146.711 172.28H160.705L169.519 157.523L171.915 172.433H185.832L173.307 181.072L175.549 196.211L163.488 186.96Z" fill="white"/>
<path d="M203.301 216.921C202.528 217.685 201.677 218.067 200.595 218.067C199.512 218.067 198.662 217.685 197.889 216.921C197.116 216.156 196.806 215.315 196.806 214.245C196.806 213.174 197.193 212.333 197.889 211.568C198.662 210.804 199.512 210.498 200.595 210.498C201.677 210.498 202.528 210.88 203.301 211.568C204.074 212.333 204.461 213.174 204.461 214.245C204.461 215.238 204.074 216.156 203.301 216.921ZM198.275 211.951C197.657 212.562 197.348 213.327 197.348 214.245C197.348 215.162 197.657 215.927 198.275 216.538C198.894 217.15 199.667 217.532 200.595 217.532C201.523 217.532 202.296 217.226 202.914 216.538C203.533 215.927 203.842 215.162 203.842 214.245C203.842 213.327 203.533 212.562 202.914 211.951C202.296 211.339 201.523 211.033 200.595 211.033C199.744 210.957 198.971 211.263 198.275 211.951ZM200.595 212.104C201.136 212.104 201.523 212.18 201.755 212.257C202.218 212.41 202.373 212.792 202.373 213.327C202.373 213.709 202.218 213.939 201.986 214.168C201.832 214.245 201.6 214.321 201.368 214.397C201.677 214.474 201.909 214.55 202.064 214.78C202.218 215.009 202.296 215.238 202.296 215.391V216.309H201.6V215.774C201.6 215.315 201.445 215.009 201.213 214.856C201.059 214.78 200.749 214.703 200.363 214.703H199.822V216.309H199.049V212.18H200.595V212.104ZM201.368 212.792C201.213 212.715 200.904 212.639 200.44 212.639H199.822V214.092H200.517C200.827 214.092 201.059 214.092 201.213 214.015C201.523 213.939 201.677 213.709 201.677 213.403C201.677 213.098 201.523 212.945 201.368 212.792Z" fill="white"/>
</g>
<defs>
<clipPath id="clip0_26_8828">
<rect width="167" height="152" fill="white" transform="translate(52 79)"/>
</clipPath>
</defs>
</svg>
